<svg width="48" height="49" viewBox="0 0 48 49" fill="none" xmlns="http://www.w3.org/2000/svg">
<rect width="48" height="48" rx="24" transform="matrix(-1 0 0 1 48 0.5)" fill="#CCBB8E"/>
<path d="M27.5695 31.9049C21.289 31.9049 16.1976 26.8136 16.1976 20.533C16.1976 14.2525 21.289 9.16113 27.5695 9.16113C33.85 9.16113 38.9414 14.2525 38.9414 20.533C38.9414 26.8136 33.85 31.9049 27.5695 31.9049Z" fill="#EDEBDC"/>
<path d="M33.1234 12.3352C32.8313 12.3352 32.5945 12.0984 32.5945 11.8063C32.5945 11.5142 32.8313 11.2773 33.1234 11.2773C33.4155 11.2773 33.6523 11.5142 33.6523 11.8063C33.6523 12.0984 33.4155 12.3352 33.1234 12.3352Z" fill="#4C241D"/>
<path d="M38.389 15.0391C38.5242 15.0391 38.6596 14.9874 38.7629 14.8841C38.9695 14.6777 38.9695 14.3427 38.7629 14.1362L37.2038 12.5768C36.9972 12.3702 36.6624 12.3702 36.4559 12.5768C36.2493 12.7832 36.2493 13.1181 36.4559 13.3247L38.015 14.8841C38.1184 14.9875 38.2537 15.0391 38.389 15.0391Z" fill="#4C241D"/>
<path d="M36.8298 15.0391C36.9651 15.0391 37.1005 14.9874 37.2038 14.8841L38.7631 13.3247C38.9696 13.1181 38.9696 12.7831 38.7631 12.5768C38.5565 12.3702 38.2217 12.3702 38.0152 12.5768L36.456 14.1362C36.2495 14.3427 36.2495 14.6778 36.456 14.8841C36.5593 14.9875 36.6946 15.0391 36.8298 15.0391Z" fill="#4C241D"/>
<path d="M36.8253 36.1364C37.7003 36.1364 38.4121 35.4246 38.4121 34.5497C38.4121 33.6747 37.7003 32.9629 36.8253 32.9629C35.9504 32.9629 35.2386 33.6747 35.2386 34.5497C35.2386 35.4246 35.9504 36.1364 36.8253 36.1364ZM36.8253 34.0207C37.1169 34.0207 37.3543 34.2581 37.3543 34.5497C37.3543 34.8412 37.1169 35.0786 36.8253 35.0786C36.5338 35.0786 36.2964 34.8412 36.2964 34.5497C36.2964 34.2581 36.5338 34.0207 36.8253 34.0207Z" fill="#4C241D"/>
<path d="M20.414 39.2726C20.1771 37.65 19.7864 35.186 19.322 35.0432C18.8008 34.8828 13.2122 36.6871 13.1525 35.2837C13.0929 33.8803 11.8889 32.5973 11.6484 32.2364C11.4079 31.8756 12.2097 31.234 12.2097 31.234C12.2097 31.234 11.3276 31.1539 11.369 30.6326C11.4102 30.1113 11.369 29.1892 11.369 29.1892C11.369 29.1892 10.0045 29.0688 9.6837 28.9084C9.36291 28.748 9.8441 27.3847 10.8775 25.9012C11.9109 24.4177 11.0548 23.5446 11.1484 20.7446C11.1884 19.5509 11.6423 18.5447 12.0908 17.7152C12.7074 16.5748 13.6666 15.661 14.7915 15.0166C17.6949 13.3534 26.1554 10.5687 29.4772 15.5188C32.7092 20.3353 31.5368 25.5585 29.4887 27.9291C27.3818 30.3676 28.0509 32.4973 28.8922 35.6081C29.0675 36.2567 29.6665 38.0454 30.1039 39.0926" fill="#FFDED5"/>
<path d="M20.4137 39.801C20.4392 39.801 20.4651 39.7992 20.4909 39.7953C20.78 39.7533 20.98 39.4846 20.9377 39.1957C20.3868 35.4247 20.0424 34.7109 19.478 34.5373C19.2014 34.4523 18.813 34.5278 17.6278 34.779C16.6751 34.9809 14.179 35.5101 13.679 35.215C13.6034 33.8927 12.694 32.7256 12.2545 32.1612C12.2211 32.1186 12.191 32.0802 12.1646 32.0458C12.2356 31.9355 12.3933 31.7656 12.5417 31.646C12.7093 31.5108 12.7785 31.2868 12.716 31.0808C12.6537 30.8743 12.4727 30.7264 12.2583 30.7068C12.1343 30.6944 11.9778 30.6489 11.9014 30.606C11.9368 30.0536 11.8993 29.2024 11.8978 29.165C11.8859 28.9003 11.6799 28.6851 11.4159 28.6619C10.9722 28.6226 10.4433 28.5542 10.1374 28.4919C10.2274 28.1015 10.585 27.2468 11.3121 26.2029C12.0711 25.1133 11.9608 24.253 11.8211 23.1639C11.738 22.5144 11.6434 21.7781 11.6775 20.7618C11.7142 19.6631 12.1425 18.7321 12.5564 17.9663C13.0994 16.9616 13.9634 16.1001 15.0549 15.4751C17.708 13.9549 25.951 11.2117 29.0383 15.8132C32.293 20.6634 30.7966 25.6064 29.0887 27.5828C26.8656 30.1565 27.4996 32.493 28.3023 35.4514L28.3822 35.7459C28.5619 36.4101 29.1728 38.234 29.6165 39.296C29.7291 39.5657 30.0387 39.693 30.3083 39.5803C30.5779 39.4677 30.7052 39.1579 30.5926 38.8885C30.1642 37.8629 29.5759 36.1075 29.4033 35.4697L29.3233 35.1745C28.5191 32.2112 28.0338 30.4224 29.8894 28.2747C32.2863 25.5005 33.1107 19.9836 29.917 15.2241C26.4785 10.0996 17.9097 12.6206 14.5291 14.5575C13.2667 15.2807 12.2628 16.2855 11.626 17.4636C11.181 18.2867 10.6645 19.4013 10.6204 20.727C10.5837 21.8283 10.6881 22.6436 10.7722 23.2988C10.9039 24.3272 10.97 24.8435 10.4442 25.5987C9.70016 26.6671 8.89831 28.1772 9.08673 28.9175C9.14016 29.1269 9.26829 29.2917 9.44773 29.3816C9.71814 29.5166 10.3579 29.6119 10.8551 29.6688C10.861 29.9617 10.8626 30.3338 10.8421 30.5908C10.8114 30.9793 10.9947 31.2706 11.2799 31.4666C11.077 31.7825 10.9659 32.1652 11.2089 32.5299C11.2536 32.5971 11.3273 32.6925 11.4202 32.8119C11.7973 33.2959 12.5821 34.3034 12.6247 35.3062C12.6369 35.5947 12.7702 35.8519 13 36.0302C13.7619 36.6206 15.5666 36.298 17.8473 35.8142C18.296 35.7192 18.8347 35.6051 19.1014 35.5715C19.2478 35.8584 19.5097 36.7367 19.8915 39.3491C19.9294 39.6117 20.1554 39.801 20.4137 39.801Z" fill="#4C241D"/>
<path d="M19.8998 24.5006L18.313 19.2113L17.2552 22.3849L10.3791 21.856C10.3791 21.856 9.32127 13.3932 19.3709 11.8064C29.4204 10.2196 33.6519 16.0378 32.594 22.9138C31.5361 29.7899 31.5361 39.3105 31.5361 39.3105H24.6601L23.6023 25.0182C23.6023 23.4609 21.7194 22.681 20.6182 23.7822L19.8998 24.5006Z" fill="#6B4F5B"/>
<path d="M24.6601 39.8391H31.5361C31.8282 39.8391 32.0651 39.6023 32.0651 39.3102C32.0651 39.2153 32.0775 29.75 33.1167 22.9937C33.6844 19.3045 32.7897 16.0702 30.5976 13.8868C28.8626 12.1588 25.4922 10.3039 19.2885 11.2834C10.939 12.6019 9.46646 18.8182 9.85429 21.9211C9.8855 22.1706 10.0878 22.3635 10.3385 22.3828L17.2146 22.9117C17.4576 22.9304 17.6801 22.7819 17.757 22.5517L18.2864 20.963L19.3931 24.6518C19.4465 24.8303 19.5898 24.9674 19.7705 25.0128C19.951 25.0585 20.1419 25.0058 20.2739 24.8738L20.9924 24.1552C21.4173 23.7301 21.9576 23.7402 22.3209 23.891C22.6848 24.0417 23.0735 24.4167 23.0735 25.0174L24.1329 39.3488C24.1531 39.6255 24.3832 39.8391 24.6601 39.8391ZM31.0104 38.7812H25.1514L24.1296 24.9788C24.1312 24.0792 23.5926 23.2733 22.7257 22.9142C21.8581 22.5547 20.9075 22.7443 20.2442 23.4077L20.1518 23.4999L18.8197 19.059C18.7533 18.838 18.5517 18.6856 18.3211 18.6819C18.0907 18.6724 17.884 18.825 17.8113 19.0434L16.8841 21.8252L10.8749 21.3632C10.8185 19.6759 11.2052 13.6307 19.4534 12.3283C24.0177 11.6075 27.6119 12.4058 29.8514 14.6362C31.798 16.5749 32.5865 19.4859 32.0714 22.8329C31.1619 28.7435 31.0297 36.678 31.0104 38.7812Z" fill="#4C241D"/>
<path d="M11.834 25.0795C11.8595 25.0795 11.8851 25.0777 11.9109 25.0741L12.8967 24.9305C13.1858 24.8885 13.3861 24.6198 13.344 24.3309C13.302 24.0414 13.0316 23.8415 12.7444 23.8835L11.7586 24.0271C11.4695 24.0692 11.2692 24.3379 11.3112 24.6268C11.3497 24.8899 11.5757 25.0795 11.834 25.0795Z" fill="#4C241D"/>
<path d="M21.9354 23.8015C21.9354 23.8015 23.3084 22.3425 24.1015 23.5031C24.6099 24.2473 24.8382 25.4921 24.1015 26.1551C23.3648 26.8181 22.7496 27.0359 22.3812 27.3674C22.0128 27.6989 21.1547 27.4811 21.1547 26.8181" fill="#FFDED5"/>
<path d="M21.934 28.0496C22.2346 28.0496 22.5231 27.9504 22.7344 27.7602C22.8496 27.6569 23.0257 27.5502 23.2298 27.4269C23.5666 27.2234 23.9857 26.9701 24.4548 26.5479C25.407 25.6911 25.2081 24.1858 24.5377 23.2044C24.1865 22.6899 23.7473 22.5536 23.4413 22.5298C22.5018 22.4561 21.6448 23.3378 21.5498 23.4388C21.3496 23.6513 21.3599 23.9862 21.5728 24.1865C21.7849 24.3862 22.1188 24.3766 22.3194 24.1645C22.5107 23.9634 23.0174 23.5538 23.3599 23.5844C23.4368 23.5906 23.5412 23.6208 23.6641 23.8009C24.0251 24.3293 24.2548 25.3048 23.7471 25.7616C23.3527 26.1165 22.9965 26.3317 22.6825 26.5214C22.443 26.6664 22.2166 26.8029 22.027 26.9737C22.0017 26.9923 21.8844 27.0083 21.7767 26.9538C21.6829 26.9058 21.6829 26.8508 21.6829 26.8178C21.6829 26.5257 21.4461 26.2888 21.154 26.2888C20.8619 26.2888 20.6251 26.5257 20.6251 26.8178C20.6251 27.3071 20.9001 27.722 21.3611 27.9273C21.5461 28.0096 21.7426 28.0496 21.934 28.0496Z" fill="#4C241D"/>
<path d="M22.0164 26.0867C22.1517 26.0867 22.2871 26.035 22.3904 25.9317L22.9193 25.4028C23.1259 25.1963 23.1259 24.8615 22.9193 24.6549C22.7128 24.4484 22.378 24.4484 22.1714 24.6549L21.6425 25.1838C21.4359 25.3904 21.4359 25.7252 21.6425 25.9317C21.7458 26.035 21.8812 26.0867 22.0164 26.0867Z" fill="#4C241D"/>
<path d="M29.9497 39.839C30.2418 39.839 30.4786 39.6022 30.4786 39.3101V30.8473C30.4786 30.5552 30.2418 30.3184 29.9497 30.3184C29.6576 30.3184 29.4207 30.5552 29.4207 30.8473V39.3101C29.4207 39.6022 29.6576 39.839 29.9497 39.839Z" fill="#4C241D"/>
<path d="M27.8344 39.8391C28.1265 39.8391 28.3633 39.6023 28.3633 39.3102V28.2028C28.3633 27.9107 28.1265 27.6738 27.8344 27.6738C27.5423 27.6738 27.3054 27.9107 27.3054 28.2028V39.3102C27.3054 39.6023 27.5423 39.8391 27.8344 39.8391Z" fill="#4C241D"/>
<path d="M20.9581 30.8474C20.0818 30.8474 19.3714 30.137 19.3714 29.2606C19.3714 28.3843 20.0818 27.6738 20.9581 27.6738C21.8345 27.6738 22.5449 28.3843 22.5449 29.2606C22.5449 30.137 21.8345 30.8474 20.9581 30.8474Z" fill="#FFCE56"/>
<path d="M20.9585 31.3759C22.1251 31.3759 23.0742 30.4268 23.0742 29.2602C23.0742 28.0937 22.1251 27.1445 20.9585 27.1445C19.792 27.1445 18.8428 28.0937 18.8428 29.2602C18.8428 30.4268 19.792 31.3759 20.9585 31.3759ZM20.9585 28.2024C21.5419 28.2024 22.0164 28.6768 22.0164 29.2602C22.0164 29.8436 21.5419 30.3181 20.9585 30.3181C20.3751 30.3181 19.9007 29.8436 19.9007 29.2602C19.9007 28.6768 20.3751 28.2024 20.9585 28.2024Z" fill="#4C241D"/>
</svg>
